<svg xmlns="http://www.w3.org/2000/svg" width="72" height="108" viewBox="0 0 72 108" fill="none"><path d="M68.6731 0.200506L1.09174 33.28C0.423184 33.6071 0 34.2864 0 35.0331V74.1616C0 75.6054 1.51137 76.5478 2.80581 75.9148L56.3368 49.7557C57.6312 49.1227 59.1426 50.0651 59.1426 51.5089V68.4576C59.1426 69.2079 58.7123 69.8942 58.0331 70.2178L28.8441 84.1865C27.5496 84.8052 26.0525 83.8629 26.0525 82.4262V72.8885H25.9316L15.4729 78.0059C14.8043 78.333 14.3811 79.0123 14.3811 79.759V100.954C14.3811 102.39 15.8783 103.333 17.1727 102.714L56.351 83.9624C57.6455 83.3437 59.1426 84.286 59.1426 85.7227V107.27H59.1959L70.3836 101.793C71.0522 101.466 71.4754 100.787 71.4754 100.04V1.9537C71.4754 0.509892 69.964 -0.432491 68.666 0.200506H68.6731Z" fill="#EF4045"></path></svg>