<svg xmlns="http://www.w3.org/2000/svg" version="1.1" xmlns:xlink="http://www.w3.org/1999/xlink" width="1000" height="1000"><metadata><rdf:RDF xmlns:rdf="http://www.w3.org/1999/02/22-rdf-syntax-ns#" xmlns:dc="http://purl.org/dc/elements/1.1/"><rdf:Description><dc:creator>RealFaviconGenerator</dc:creator><dc:source>https://realfavicongenerator.net</dc:source></rdf:Description></rdf:RDF></metadata><g clip-path="url(#SvgjsClipPath2189)"><rect width="1000" height="1000" fill="#ffffff"></rect><g transform="matrix(4.487179487179487,0,0,4.487179487179487,150,293.5897435897436)"><svg xmlns="http://www.w3.org/2000/svg" width="156" height="92" viewBox="0 0 156 92" fill="none"><g clip-path="url(#clip0_82_86)">
<path d="M73.8626 71.8912V92H0V0H72.1552V20.1088H25.7592V35.6165H66.6351V55.067H25.7592V71.8912H73.8626Z" fill="#659941"></path>
<path d="M103.05 39.2085C103.05 40.3446 102.128 41.2668 100.989 41.2668C99.8491 41.2668 98.9302 40.3446 98.9302 39.2085C98.9302 38.0724 99.8524 37.1468 100.989 37.1468C102.125 37.1468 103.05 38.069 103.05 39.2085Z" fill="#2C2D2B"></path>
<path d="M107.17 35.0884C107.17 36.2245 106.248 37.1468 105.112 37.1468C103.976 37.1468 103.05 36.2245 103.05 35.0884C103.05 33.9523 103.973 33.0267 105.112 33.0267C106.251 33.0267 107.17 33.9523 107.17 35.0884Z" fill="#2C2D2B"></path>
<path d="M111.29 30.798C111.29 31.9341 110.368 32.8564 109.232 32.8564C108.096 32.8564 107.17 31.9341 107.17 30.798C107.17 29.6619 108.092 28.7364 109.232 28.7364C110.371 28.7364 111.29 29.6586 111.29 30.798Z" fill="#2C2D2B"></path>
<path d="M105.891 46.5631C105.891 47.6992 104.968 48.6214 103.832 48.6214C102.696 48.6214 101.771 47.6992 101.771 46.5631C101.771 45.427 102.693 44.5014 103.832 44.5014C104.972 44.5014 105.891 45.427 105.891 46.5631Z" fill="#2C2D2B"></path>
<path d="M110.174 42.2727C110.174 43.4088 109.252 44.331 108.116 44.331C106.98 44.331 106.054 43.4088 106.054 42.2727C106.054 41.1366 106.976 40.211 108.116 40.211C109.255 40.211 110.174 41.1332 110.174 42.2727Z" fill="#2C2D2B"></path>
<path d="M114.454 37.9488C114.454 39.0849 113.532 40.0072 112.393 40.0072C111.253 40.0072 110.334 39.0849 110.334 37.9488C110.334 36.8127 111.257 35.8872 112.393 35.8872C113.529 35.8872 114.454 36.8094 114.454 37.9488Z" fill="#2C2D2B"></path>
<path d="M118.735 33.8321C118.735 34.9682 117.813 35.8904 116.676 35.8904C115.54 35.8904 114.615 34.9682 114.615 33.8321C114.615 32.696 115.537 31.7704 116.676 31.7704C117.816 31.7704 118.735 32.696 118.735 33.8321Z" fill="#2C2D2B"></path>
<path d="M109.449 53.9041C109.449 55.0402 108.527 55.9624 107.391 55.9624C106.255 55.9624 105.329 55.0402 105.329 53.9041C105.329 52.768 106.251 51.8424 107.391 51.8424C108.53 51.8424 109.449 52.768 109.449 53.9041Z" fill="#2C2D2B"></path>
<path d="M113.689 49.6104C113.689 50.7465 112.767 51.6687 111.631 51.6687C110.495 51.6687 109.569 50.7465 109.569 49.6104C109.569 48.4743 110.491 47.5487 111.631 47.5487C112.77 47.5487 113.689 48.471 113.689 49.6104Z" fill="#2C2D2B"></path>
<path d="M117.93 45.2899C117.93 46.426 117.007 47.3482 115.868 47.3482C114.728 47.3482 113.81 46.426 113.81 45.2899C113.81 44.1538 114.732 43.2282 115.868 43.2282C117.004 43.2282 117.93 44.1504 117.93 45.2899Z" fill="#2C2D2B"></path>
<path d="M122.17 41.1699C122.17 42.306 121.248 43.2283 120.112 43.2283C118.976 43.2283 118.05 42.306 118.05 41.1699C118.05 40.0339 118.972 39.1083 120.112 39.1083C121.251 39.1083 122.17 40.0339 122.17 41.1699Z" fill="#2C2D2B"></path>
<path d="M126.414 36.8761C126.414 38.0122 125.491 38.9345 124.355 38.9345C123.219 38.9345 122.294 38.0122 122.294 36.8761C122.294 35.74 123.216 34.8145 124.355 34.8145C125.495 34.8145 126.414 35.7367 126.414 36.8761Z" fill="#2C2D2B"></path>
<path fill-rule="evenodd" clip-rule="evenodd" d="M138.941 56.9115C134.948 65.3018 126.417 71.1126 116.506 71.1126C102.776 71.1126 91.6492 59.9823 91.6492 46.2556C91.6492 32.5289 102.78 21.3953 116.506 21.3953C125.448 21.3953 133.264 26.1334 137.644 33.2206L155.758 22.655C147.749 9.35269 133.17 0.454422 116.51 0.454422C91.2148 0.454422 70.7117 20.9609 70.7117 46.2523C70.7117 71.5437 90.1021 90.9073 114.428 92C114.364 89.9383 114.181 89.7111 113.659 87.5024C112.871 84.1643 111.467 82.4 111.464 82.4C111.464 82.4 111.464 82.0291 111.464 81.5747V79.5932C111.464 79.1388 111.835 78.7679 112.289 78.7679H120.733C121.188 78.7679 121.558 79.1388 121.558 79.5932V81.5747C121.558 82.0291 121.558 82.4 121.558 82.4C121.558 82.4 120.152 84.161 119.363 87.5024C118.842 89.7111 118.658 89.9383 118.595 92C134.396 91.2916 148.11 82.5738 155.782 69.8128L138.944 56.9115H138.941Z" fill="#2D2D2B"></path>
</g><defs>
<clipPath id="clip0_82_86">
<rect width="155.781" height="92" fill="white"></rect>
</clipPath>
<clipPath id="SvgjsClipPath2189"><rect width="1000" height="1000" x="0" y="0" rx="500" ry="500"></rect></clipPath></defs></svg></g></g></svg>