<svg xmlns="http://www.w3.org/2000/svg" version="1.1" xmlns:xlink="http://www.w3.org/1999/xlink" width="74" height="73"><svg xmlns="http://www.w3.org/2000/svg" version="1.1" xmlns:xlink="http://www.w3.org/1999/xlink" width="74" height="73"><svg width="74" height="73" viewBox="0 0 74 73" fill="none" xmlns="http://www.w3.org/2000/svg">
<g clip-path="url(#clip0_188_1123)">
<ellipse cx="36.9099" cy="36.27" rx="33" ry="32" fill="#212221"></ellipse>
<path d="M36.87 -0.27002C16.51 -0.27002 0 16.24 0 36.6C0 56.96 16.51 73.47 36.87 73.47C57.23 73.47 73.74 56.96 73.74 36.6C73.74 16.24 57.23 -0.27002 36.87 -0.27002ZM58.24 53.38C55.58 55.84 52.41 57.07 48.7 57.07H25.03C21.34 57.07 18.15 55.83 15.49 53.36C12.83 50.88 11.5 47.93 11.5 44.51V28.76C11.5 25.29 12.84 22.32 15.49 19.85C18.15 17.37 21.34 16.13 25.03 16.13H61.76V25.47H25.03C24.31 25.47 23.56 25.84 22.8 26.56C22.03 27.29 21.65 27.99 21.65 28.67V44.54C21.65 45.35 21.99 46.09 22.7 46.75C23.4 47.4 24.17 47.73 25.03 47.73H48.7C49.64 47.73 50.45 47.43 51.1 46.81C51.75 46.2 52.09 45.44 52.09 44.53C52.09 43.62 51.76 42.86 51.1 42.25C50.45 41.64 49.64 41.33 48.7 41.33H31.79V31.98H48.7C52.4 31.98 55.58 33.21 58.24 35.68C60.9 38.15 62.23 41.11 62.23 44.56C62.23 48.01 60.9 50.91 58.24 53.38Z" fill="white"></path>
</g>
<defs>
<clipPath id="clip0_188_1123">
<rect width="74" height="73" fill="white"></rect>
</clipPath>
</defs>
</svg></svg><style>@media (prefers-color-scheme: light) { :root { filter: none; } }
@media (prefers-color-scheme: dark) { :root { filter: none; } }
</style></svg>