<svg xmlns="http://www.w3.org/2000/svg" viewBox="0 0 209 19" fill="none" aria-hidden="true">
  <g clip-path="url(#clip0_golfnorth_white)">
    <path
      fill="white"
      d="M92.959 18.433V0h15.221q2.498 0 4.295 1.674 1.794 1.67 1.793 4.014v12.745h-4.565V5.643q0-.582-.458-1.009a1.5 1.5 0 0 0-1.067-.429H97.52v14.228h-4.563zM123.129 14.226q-.58 0-1.052-.443t-.473-.997v-7.14q0-.458.518-.948t1.007-.49h10.656q.577 0 1.05.446.471.443.471.995v7.141q.001.614-.44 1.024a1.52 1.52 0 0 1-1.081.415h-10.656m10.656 4.204q2.498.001 4.291-1.672 1.796-1.673 1.797-3.985V5.688q0-2.34-1.797-4.014Q136.283 0 133.785 0h-10.656q-2.5 0-4.293 1.674-1.798 1.67-1.797 4.014v7.09q0 2.311 1.797 3.985 1.793 1.673 4.293 1.672h10.656zM158.742 4.634q.44.425.441 1.056.001.569-.458 1.01-.456.44-1.067.44h-10.472V4.206h10.472q.639 0 1.083.43m-16.124 13.798h4.569V11.35h10.901q.487 0 .881.473.398.47.399.956v5.657h4.565v-5.657q.001-2.1-1.43-3.653 1.096-1.64 1.096-3.435 0-2.34-1.796-4.014Q160.007.002 157.511 0h-14.89v18.434zM174.25 4.206h-7.582V0h19.761v4.206h-7.613V18.49h-4.566zM204.422 11.347h-10.656v7.087h-4.567V0h4.567v7.14h10.656V0h4.567v18.434h-4.567z"
    />
    <path
      fill="white"
      d="M22.622 0v4.206H6.09c-.324 0-.662.165-1.005.49q-.518.492-.516.95v7.14q-.001.55.471.998.472.442 1.052.442h10.656q.638 0 1.08-.415.444-.412.445-1.024-.002-.611-.444-1.029a1.53 1.53 0 0 0-1.08-.413H9.136V7.137h7.611q2.498 0 4.293 1.665 1.796 1.667 1.797 3.996c0 1.552-.6 2.856-1.797 3.967q-1.794 1.664-4.293 1.663H6.09c-1.663 0-3.097-.557-4.294-1.672Q0 15.082 0 12.77V5.688q.001-2.34 1.796-4.014Q3.593.001 6.09 0zM31.666 14.226q-.58 0-1.052-.442-.473-.444-.471-.997v-7.14q0-.458.516-.948.517-.49 1.005-.491H42.32q.577.001 1.052.446.471.444.471.995v7.141q0 .615-.442 1.025a1.52 1.52 0 0 1-1.08.415H31.663m10.658 4.204q2.498 0 4.293-1.672 1.796-1.674 1.797-3.985V5.688q0-2.34-1.797-4.014Q44.82.001 42.323 0H31.666q-2.498 0-4.291 1.674-1.799 1.671-1.797 4.014v7.09q0 2.312 1.797 3.986 1.795 1.672 4.29 1.672h10.657zM69.42 18.434H57.241c-1.664 0-3.098-.557-4.293-1.673q-1.796-1.673-1.797-3.984V0h4.567v12.796c0 .384.151.722.456 1.005q.457.425 1.067.425h12.177v4.208M72.16 18.434V5.688q0-2.34 1.797-4.014Q75.753.001 78.25 0h11.995v4.206H78.25q-1.128 0-1.432 1.042-.09.38-.091 1.893h12.94v4.208h-12.94v7.085z"
    />
  </g>
  <defs>
    <clipPath id="clip0_golfnorth_white">
      <path fill="white" d="M0 0h208.991v18.49H0z" />
    </clipPath>
  </defs>
</svg>
