<svg viewBox="0 0 349 125" fill="none" xmlns="http://www.w3.org/2000/svg" aria-hidden="true">
  <g clip-path="url(#clip0_tee_on)">
    <path d="M22.18 18.08H0L3.03 1.07001H67.53L64.5 18.07H42.32L32.84 71.82H12.7L22.18 18.07V18.08Z" fill="#4168B1"/>
    <path d="M72.8101 1.07001H117.96L114.93 18.07H89.9101L88.3501 27.06H109.36L106.53 43.09H85.5201L83.4701 54.82H109.66L106.63 71.82H60.3101L72.8101 1.07001Z" fill="#4168B1"/>
    <path d="M126.26 1.07001H171.41L168.38 18.07H143.36L141.8 27.06H162.81L159.98 43.09H138.97L136.92 54.82H163.11L160.08 71.82H113.76L126.26 1.07001Z" fill="#4168B1"/>
    <path d="M205.22 12.41C212.26 4.59 222.32 0 233.85 0C252.71 0 268.64 12.12 268.64 32.74C268.64 41.93 265.51 52.38 258.18 60.49C251.14 68.31 241.08 72.9 229.55 72.9C210.69 72.9 194.76 60.78 194.76 40.16C194.76 30.97 197.89 20.52 205.22 12.41ZM230.24 55.41C235.61 55.41 239.91 52.97 242.75 49.55C245.88 45.84 248.22 40.07 248.22 34.11C248.22 25.12 242.85 17.5 233.17 17.5C227.8 17.5 223.49 19.94 220.66 23.36C217.53 27.07 215.19 32.84 215.19 38.8C215.19 47.79 220.56 55.41 230.24 55.41Z" fill="#4168B1"/>
    <path d="M268.26 71.83L280.77 1.07001H299.53L311.55 22.86C315.17 29.41 318.78 36.05 322.2 42.6L322.39 42.5C323.37 36.15 324.64 28.43 325.91 21.2L329.43 1.07001H348.78L336.27 71.82H317.51L305.49 50.03C301.87 43.48 298.26 36.84 294.84 30.29L294.65 30.39C293.67 36.74 292.4 44.46 291.13 51.69L287.61 71.82H268.26V71.83Z" fill="#4168B1"/>
    <path d="M7.35992 92.65L1.66992 124.54L330.36 106.89L333.33 92.65H7.35992Z" fill="#4168B1"/>
  </g>
  <defs>
    <clipPath id="clip0_tee_on">
      <rect width="348.78" height="124.54" fill="white"/>
    </clipPath>
  </defs>
</svg>
