<svg xmlns="http://www.w3.org/2000/svg" version="1.1" xmlns:xlink="http://www.w3.org/1999/xlink" width="1000" height="1000"><metadata><rdf:RDF xmlns:rdf="http://www.w3.org/1999/02/22-rdf-syntax-ns#" xmlns:dc="http://purl.org/dc/elements/1.1/"><rdf:Description><dc:creator>RealFaviconGenerator</dc:creator><dc:source>https://realfavicongenerator.net</dc:source></rdf:Description></rdf:RDF></metadata><g clip-path="url(#SvgjsClipPath1013)"><rect width="1000" height="1000" fill="#ffffff"></rect><g transform="matrix(1.1965811965811965,0,0,1.1965811965811965,150,242.73504273504273)"><svg xmlns="http://www.w3.org/2000/svg" width="585" height="430" viewBox="0 0 585 430" fill="none"><path d="M42.496 429.568C30.208 429.568 19.968 426.667 11.776 420.864C3.92533 415.061 0 405.675 0 392.704C0 386.56 0.853333 378.027 2.56 367.104C4.608 356.181 8.36267 340.821 13.824 321.024L79.872 75.776C82.2613 66.9013 84.1387 59.7333 85.504 54.272C87.2107 48.8107 88.064 44.8853 88.064 42.496C88.064 30.8907 74.9227 25.088 48.64 25.088L54.784 4.608L162.304 0L70.656 336.384C68.2667 345.259 66.3893 352.768 65.024 358.912C63.6587 364.715 62.976 369.664 62.976 373.76C62.976 377.515 63.8293 380.587 65.536 382.976C67.2427 385.365 69.9733 386.56 73.728 386.56C78.848 386.56 84.1387 384.512 89.6 380.416C95.4027 376.32 100.864 371.2 105.984 365.056C111.445 358.571 116.224 352.085 120.32 345.6C124.416 338.773 127.829 332.971 130.56 328.192L150.016 336.896C141.141 355.328 130.901 371.541 119.296 385.536C107.691 399.189 95.4027 409.941 82.432 417.792C69.4613 425.643 56.1493 429.568 42.496 429.568Z" fill="black"></path><path d="M273.388 429.568C252.908 429.568 236.695 423.424 224.748 411.136C212.801 398.848 206.828 381.781 206.828 359.936C206.828 339.456 211.777 316.928 221.676 292.352C231.575 267.776 247.105 241.152 268.268 212.48L267.244 210.944C258.711 210.944 251.543 209.579 245.74 206.848C240.279 204.117 235.841 201.045 232.428 197.632C229.015 194.219 225.772 191.317 222.7 188.928C219.628 186.197 216.215 184.832 212.46 184.832C206.999 184.832 204.268 187.904 204.268 194.048C204.268 198.485 205.804 202.24 208.876 205.312C211.948 208.043 214.849 210.944 217.58 214.016C220.652 217.088 222.188 221.355 222.188 226.816C222.188 232.619 219.799 237.739 215.02 242.176C210.583 246.272 204.439 248.32 196.588 248.32C187.372 248.32 180.204 244.907 175.084 238.08C170.305 231.253 167.916 222.891 167.916 212.992C167.916 201.045 171.159 190.293 177.644 180.736C184.129 170.837 192.321 162.987 202.22 157.184C212.46 151.381 223.041 148.48 233.964 148.48C243.521 148.48 251.031 150.016 256.492 153.088C261.953 156.16 266.903 159.403 271.34 162.816C276.119 165.888 281.58 167.424 287.724 167.424C291.137 167.424 294.551 166.741 297.964 165.376C301.377 164.011 304.961 161.621 308.716 158.208C312.129 154.795 316.225 152.235 321.004 150.528C326.124 148.821 330.732 147.968 334.828 147.968C344.385 147.968 349.164 151.211 349.164 157.696C349.164 161.109 347.457 165.035 344.044 169.472C340.972 173.909 335.511 180.395 327.66 188.928C314.689 204.971 303.767 221.696 294.892 239.104C286.017 256.171 279.361 273.067 274.924 289.792C270.487 306.176 268.268 322.048 268.268 337.408C268.268 353.451 270.657 365.909 275.436 374.784C280.215 383.659 286.871 388.096 295.404 388.096C303.596 388.096 312.983 384.683 323.564 377.856C334.487 370.688 345.751 360.619 357.356 347.648C356.673 339.456 355.991 331.605 355.308 324.096C354.967 316.587 354.796 308.907 354.796 301.056C354.796 279.552 357.185 259.584 361.964 241.152C367.084 222.379 373.74 205.995 381.932 192C390.465 178.005 399.681 167.253 409.58 159.744C419.479 151.893 429.377 147.968 439.276 147.968C447.809 147.968 455.319 151.211 461.804 157.696C468.289 164.181 471.532 174.933 471.532 189.952C471.532 202.24 468.801 216.747 463.34 233.472C457.879 250.197 450.54 267.435 441.324 285.184C432.108 302.592 421.527 318.976 409.58 334.336C412.652 348.331 418.113 359.936 425.964 369.152C434.156 378.027 442.86 382.464 452.076 382.464C461.292 382.464 470.679 378.368 480.236 370.176C489.793 361.984 498.668 351.061 506.86 337.408C515.052 323.755 521.537 308.736 526.316 292.352C531.436 275.968 533.996 259.584 533.996 243.2C533.996 232.619 532.972 223.915 530.924 217.088C529.217 209.92 527.34 203.435 525.292 197.632C523.244 191.488 522.22 185.003 522.22 178.176C522.22 168.277 524.78 160.768 529.9 155.648C535.361 150.528 542.7 147.968 551.916 147.968C562.839 147.968 570.86 151.893 575.98 159.744C581.441 167.595 584.172 180.736 584.172 199.168C584.172 221.355 581.271 243.541 575.468 265.728C569.665 287.573 561.644 308.395 551.404 328.192C541.505 347.648 529.9 365.056 516.588 380.416C503.617 395.776 489.793 407.893 475.116 416.768C460.78 425.301 446.273 429.568 431.596 429.568C416.577 429.568 403.777 425.472 393.196 417.28C382.956 409.088 374.593 397.483 368.108 382.464C353.431 397.824 338.071 409.6 322.028 417.792C305.985 425.643 289.772 429.568 273.388 429.568ZM401.388 297.984C410.945 284.331 418.284 270.336 423.404 256C428.865 241.323 431.596 226.987 431.596 212.992C431.596 200.021 429.036 193.536 423.916 193.536C419.479 193.536 415.383 197.12 411.628 204.288C407.873 211.456 404.801 221.013 402.412 232.96C400.023 244.907 398.828 258.219 398.828 272.896C398.828 277.333 398.999 281.771 399.34 286.208C399.681 290.304 400.364 294.229 401.388 297.984Z" fill="black"></path></svg></g></g><defs><clipPath id="SvgjsClipPath1013"><rect width="1000" height="1000" x="0" y="0" rx="300" ry="300"></rect></clipPath></defs></svg>